<svg width="10" height="7" viewBox="0 0 10 7" fill="none" xmlns="http://www.w3.org/2000/svg">
<mask id="path-1-inside-1_5_88" fill="white">
<path d="M6.97559 5.45374C6.87533 5.56307 6.80974 5.69967 6.78711 5.84627C6.76449 5.99287 6.78584 6.14288 6.84848 6.27735C6.91111 6.41181 7.01221 6.52468 7.139 6.60169C7.26578 6.67869 7.41255 6.71637 7.56075 6.70996C7.70895 6.70355 7.85191 6.65334 7.97157 6.56567C8.09124 6.47801 8.18221 6.35683 8.233 6.21746C8.28379 6.07809 8.29212 5.92679 8.25692 5.78269C8.22172 5.63859 8.14458 5.50817 8.03525 5.40791L7.82043 5.64215C7.88343 5.69993 7.92787 5.77508 7.94816 5.85811C7.96844 5.94114 7.96364 6.02833 7.93438 6.10863C7.90511 6.18894 7.85269 6.25876 7.78374 6.30928C7.71479 6.35979 7.63241 6.38872 7.54701 6.39242C7.46162 6.39611 7.37705 6.3744 7.30399 6.33003C7.23094 6.28566 7.17268 6.22062 7.13659 6.14314C7.1005 6.06566 7.0882 5.97922 7.10123 5.89474C7.11427 5.81027 7.15206 5.73156 7.20983 5.66857L6.97559 5.45374Z"/>
</mask>
<path d="M6.97559 5.45374C6.87533 5.56307 6.80974 5.69967 6.78711 5.84627C6.76449 5.99287 6.78584 6.14288 6.84848 6.27735C6.91111 6.41181 7.01221 6.52468 7.139 6.60169C7.26578 6.67869 7.41255 6.71637 7.56075 6.70996C7.70895 6.70355 7.85191 6.65334 7.97157 6.56567C8.09124 6.47801 8.18221 6.35683 8.233 6.21746C8.28379 6.07809 8.29212 5.92679 8.25692 5.78269C8.22172 5.63859 8.14458 5.50817 8.03525 5.40791L7.82043 5.64215C7.88343 5.69993 7.92787 5.77508 7.94816 5.85811C7.96844 5.94114 7.96364 6.02833 7.93438 6.10863C7.90511 6.18894 7.85269 6.25876 7.78374 6.30928C7.71479 6.35979 7.63241 6.38872 7.54701 6.39242C7.46162 6.39611 7.37705 6.3744 7.30399 6.33003C7.23094 6.28566 7.17268 6.22062 7.13659 6.14314C7.1005 6.06566 7.0882 5.97922 7.10123 5.89474C7.11427 5.81027 7.15206 5.73156 7.20983 5.66857L6.97559 5.45374Z" fill="#E56B00"/>
<path d="M6.97559 5.45374L6.23858 4.77785L6.91447 4.04085L7.65148 4.71674L6.97559 5.45374ZM8.03525 5.40791L7.29825 4.73202L7.97414 3.99501L8.71114 4.6709L8.03525 5.40791ZM7.82043 5.64215L7.14454 6.37916L6.40754 5.70327L7.08343 4.96627L7.82043 5.64215ZM7.20983 5.66857L7.88572 4.93156L8.62273 5.60745L7.94684 6.34446L7.20983 5.66857ZM6.97559 5.45374L7.71259 6.12963C7.74601 6.09319 7.76787 6.04766 7.77541 5.99879L6.78711 5.84627L5.79881 5.69374C5.8516 5.35167 6.00465 5.03294 6.23858 4.77785L6.97559 5.45374ZM6.78711 5.84627L7.77541 5.99879C7.78295 5.94992 7.77584 5.89992 7.75496 5.8551L6.84848 6.27735L5.942 6.6996C5.79585 6.38585 5.74602 6.03581 5.79881 5.69374L6.78711 5.84627ZM6.84848 6.27735L7.75496 5.8551C7.73408 5.81028 7.70038 5.77265 7.65812 5.74698L7.139 6.60169L6.61988 7.45639C6.32405 7.27671 6.08815 7.01335 5.942 6.6996L6.84848 6.27735ZM7.139 6.60169L7.65812 5.74698C7.61586 5.72132 7.56693 5.70876 7.51753 5.71089L7.56075 6.70996L7.60396 7.70903C7.25817 7.72398 6.9157 7.63606 6.61988 7.45639L7.139 6.60169ZM7.56075 6.70996L7.51753 5.71089C7.46813 5.71303 7.42048 5.72977 7.38059 5.75899L7.97157 6.56567L8.56256 7.37236C8.28335 7.57691 7.94976 7.69407 7.60396 7.70903L7.56075 6.70996ZM7.97157 6.56567L7.38059 5.75899C7.34071 5.78821 7.31038 5.8286 7.29345 5.87506L8.233 6.21746L9.17256 6.55986C9.05405 6.88506 8.84177 7.16781 8.56256 7.37236L7.97157 6.56567ZM8.233 6.21746L7.29345 5.87506C7.27652 5.92152 7.27375 5.97195 7.28548 6.01998L8.25692 5.78269L9.22835 5.5454C9.31049 5.88163 9.29107 6.23467 9.17256 6.55986L8.233 6.21746ZM8.25692 5.78269L7.28548 6.01998C7.29721 6.06802 7.32292 6.11149 7.35937 6.14491L8.03525 5.40791L8.71114 4.6709C8.96623 4.90484 9.14622 5.20917 9.22835 5.5454L8.25692 5.78269ZM8.03525 5.40791L8.77226 6.0838L8.55743 6.31804L7.82043 5.64215L7.08343 4.96627L7.29825 4.73202L8.03525 5.40791ZM7.82043 5.64215L8.49632 4.90515C8.70508 5.0966 8.85238 5.34565 8.91959 5.62082L7.94816 5.85811L6.97672 6.0954C7.00337 6.2045 7.06177 6.30325 7.14454 6.37916L7.82043 5.64215ZM7.94816 5.85811L8.91959 5.62082C8.98681 5.89598 8.97092 6.1849 8.87393 6.45103L7.93438 6.10863L6.99482 5.76623C6.95637 5.87175 6.95007 5.9863 6.97672 6.0954L7.94816 5.85811ZM7.93438 6.10863L8.87393 6.45103C8.77694 6.71717 8.60322 6.94856 8.37472 7.11596L7.78374 6.30928L7.19276 5.50259C7.10216 5.56897 7.03328 5.66071 6.99482 5.76623L7.93438 6.10863ZM7.78374 6.30928L8.37472 7.11596C8.14622 7.28336 7.87322 7.37924 7.59023 7.39148L7.54701 6.39242L7.5038 5.39335C7.3916 5.39821 7.28335 5.43622 7.19276 5.50259L7.78374 6.30928ZM7.54701 6.39242L7.59023 7.39148C7.30724 7.40372 7.02697 7.33177 6.78487 7.18473L7.30399 6.33003L7.82311 5.47533C7.72712 5.41703 7.616 5.3885 7.5038 5.39335L7.54701 6.39242ZM7.30399 6.33003L6.78487 7.18473C6.54278 7.03769 6.34972 6.82216 6.23011 6.56539L7.13659 6.14314L8.04307 5.72089C7.99565 5.61909 7.9191 5.53363 7.82311 5.47533L7.30399 6.33003ZM7.13659 6.14314L6.23011 6.56539C6.11051 6.30863 6.06973 6.02216 6.11293 5.74222L7.10123 5.89474L8.08953 6.04727C8.10666 5.93627 8.09049 5.82269 8.04307 5.72089L7.13659 6.14314ZM7.10123 5.89474L6.11293 5.74222C6.15614 5.46228 6.28138 5.20144 6.47283 4.99268L7.20983 5.66857L7.94684 6.34446C8.02274 6.26168 8.0724 6.15826 8.08953 6.04727L7.10123 5.89474ZM7.20983 5.66857L6.53394 6.40557L6.2997 6.19075L6.97559 5.45374L7.65148 4.71674L7.88572 4.93156L7.20983 5.66857Z" fill="#E56B00" mask="url(#path-1-inside-1_5_88)"/>
<mask id="path-3-inside-2_5_88" fill="white">
<path d="M5.01741 5.45374C5.11767 5.56307 5.18326 5.69967 5.20589 5.84627C5.22851 5.99287 5.20716 6.14288 5.14452 6.27735C5.08189 6.41181 4.98078 6.52468 4.854 6.60169C4.72722 6.67869 4.58045 6.71637 4.43225 6.70996C4.28405 6.70355 4.14108 6.65334 4.02142 6.56567C3.90176 6.47801 3.81079 6.35683 3.76 6.21746C3.7092 6.07809 3.70088 5.92679 3.73608 5.78269C3.77128 5.63859 3.84842 5.50817 3.95774 5.40791L4.17257 5.64215C4.10957 5.69993 4.06512 5.77508 4.04484 5.85811C4.02456 5.94114 4.02936 6.02833 4.05862 6.10863C4.08789 6.18894 4.14031 6.25876 4.20926 6.30928C4.27821 6.35979 4.36059 6.38872 4.44599 6.39242C4.53138 6.39611 4.61595 6.3744 4.689 6.33003C4.76206 6.28566 4.82032 6.22062 4.85641 6.14314C4.8925 6.06566 4.9048 5.97922 4.89177 5.89474C4.87873 5.81027 4.84094 5.73156 4.78317 5.66857L5.01741 5.45374Z"/>
</mask>
<path d="M5.01741 5.45374C5.11767 5.56307 5.18326 5.69967 5.20589 5.84627C5.22851 5.99287 5.20716 6.14288 5.14452 6.27735C5.08189 6.41181 4.98078 6.52468 4.854 6.60169C4.72722 6.67869 4.58045 6.71637 4.43225 6.70996C4.28405 6.70355 4.14108 6.65334 4.02142 6.56567C3.90176 6.47801 3.81079 6.35683 3.76 6.21746C3.7092 6.07809 3.70088 5.92679 3.73608 5.78269C3.77128 5.63859 3.84842 5.50817 3.95774 5.40791L4.17257 5.64215C4.10957 5.69993 4.06512 5.77508 4.04484 5.85811C4.02456 5.94114 4.02936 6.02833 4.05862 6.10863C4.08789 6.18894 4.14031 6.25876 4.20926 6.30928C4.27821 6.35979 4.36059 6.38872 4.44599 6.39242C4.53138 6.39611 4.61595 6.3744 4.689 6.33003C4.76206 6.28566 4.82032 6.22062 4.85641 6.14314C4.8925 6.06566 4.9048 5.97922 4.89177 5.89474C4.87873 5.81027 4.84094 5.73156 4.78317 5.66857L5.01741 5.45374Z" fill="#E56B00"/>
<path d="M5.01741 5.45374L5.75442 4.77785L5.07853 4.04085L4.34152 4.71674L5.01741 5.45374ZM3.95774 5.40791L4.69475 4.73202L4.01886 3.99502L3.28186 4.6709L3.95774 5.40791ZM4.17257 5.64215L4.84846 6.37916L5.58546 5.70327L4.90957 4.96627L4.17257 5.64215ZM4.78317 5.66857L4.10728 4.93156L3.37027 5.60745L4.04616 6.34446L4.78317 5.66857ZM5.01741 5.45374L4.28041 6.12963C4.24699 6.09319 4.22513 6.04766 4.21759 5.99879L5.20589 5.84627L6.19419 5.69374C6.14139 5.35167 5.98835 5.03294 5.75442 4.77785L5.01741 5.45374ZM5.20589 5.84627L4.21759 5.99879C4.21004 5.94992 4.21716 5.89992 4.23804 5.8551L5.14452 6.27735L6.051 6.6996C6.19715 6.38585 6.24698 6.03581 6.19419 5.69374L5.20589 5.84627ZM5.14452 6.27735L4.23804 5.8551C4.25892 5.81028 4.29262 5.77265 4.33488 5.74698L4.854 6.60169L5.37312 7.45639C5.66895 7.27671 5.90485 7.01335 6.051 6.6996L5.14452 6.27735ZM4.854 6.60169L4.33488 5.74698C4.37714 5.72132 4.42606 5.70876 4.47546 5.71089L4.43225 6.70996L4.38904 7.70903C4.73483 7.72398 5.07729 7.63606 5.37312 7.45639L4.854 6.60169ZM4.43225 6.70996L4.47546 5.71089C4.52486 5.71303 4.57252 5.72977 4.61241 5.75899L4.02142 6.56567L3.43044 7.37236C3.70965 7.57691 4.04324 7.69407 4.38904 7.70903L4.43225 6.70996ZM4.02142 6.56567L4.61241 5.75899C4.65229 5.78821 4.68262 5.8286 4.69955 5.87506L3.76 6.21746L2.82044 6.55986C2.93895 6.88506 3.15123 7.16781 3.43044 7.37236L4.02142 6.56567ZM3.76 6.21746L4.69955 5.87506C4.71648 5.92152 4.71925 5.97195 4.70752 6.01998L3.73608 5.78269L2.76464 5.5454C2.68251 5.88163 2.70193 6.23467 2.82044 6.55986L3.76 6.21746ZM3.73608 5.78269L4.70752 6.01998C4.69579 6.06802 4.67007 6.11149 4.63363 6.14491L3.95774 5.40791L3.28186 4.6709C3.02677 4.90484 2.84677 5.20917 2.76464 5.5454L3.73608 5.78269ZM3.95774 5.40791L3.22074 6.0838L3.43556 6.31804L4.17257 5.64215L4.90957 4.96627L4.69475 4.73202L3.95774 5.40791ZM4.17257 5.64215L3.49668 4.90515C3.28792 5.0966 3.14062 5.34565 3.0734 5.62082L4.04484 5.85811L5.01628 6.0954C4.98963 6.2045 4.93123 6.30325 4.84846 6.37916L4.17257 5.64215ZM4.04484 5.85811L3.0734 5.62082C3.00619 5.89598 3.02208 6.1849 3.11907 6.45103L4.05862 6.10863L4.99818 5.76623C5.03663 5.87175 5.04293 5.9863 5.01628 6.0954L4.04484 5.85811ZM4.05862 6.10863L3.11907 6.45103C3.21605 6.71717 3.38978 6.94856 3.61828 7.11596L4.20926 6.30928L4.80024 5.50259C4.89084 5.56897 4.95972 5.66071 4.99818 5.76623L4.05862 6.10863ZM4.20926 6.30928L3.61828 7.11596C3.84678 7.28336 4.11978 7.37924 4.40277 7.39148L4.44599 6.39242L4.4892 5.39335C4.6014 5.39821 4.70965 5.43622 4.80024 5.50259L4.20926 6.30928ZM4.44599 6.39242L4.40277 7.39148C4.68576 7.40372 4.96603 7.33177 5.20812 7.18473L4.689 6.33003L4.16989 5.47533C4.26587 5.41703 4.377 5.3885 4.4892 5.39335L4.44599 6.39242ZM4.689 6.33003L5.20812 7.18473C5.45022 7.03769 5.64328 6.82215 5.76289 6.56539L4.85641 6.14314L3.94993 5.72089C3.99735 5.61909 4.07389 5.53363 4.16989 5.47533L4.689 6.33003ZM4.85641 6.14314L5.76289 6.56539C5.88249 6.30863 5.92327 6.02216 5.88007 5.74222L4.89177 5.89474L3.90347 6.04727C3.88634 5.93628 3.90251 5.82269 3.94993 5.72089L4.85641 6.14314ZM4.89177 5.89474L5.88007 5.74222C5.83686 5.46228 5.71162 5.20144 5.52017 4.99268L4.78317 5.66857L4.04616 6.34446C3.97025 6.26168 3.9206 6.15826 3.90347 6.04727L4.89177 5.89474ZM4.78317 5.66857L5.45905 6.40557L5.6933 6.19075L5.01741 5.45374L4.34152 4.71674L4.10728 4.93156L4.78317 5.66857Z" fill="#E56B00" mask="url(#path-3-inside-2_5_88)"/>
<path d="M9.5 1.45L7.5 4.95" stroke="#E56B00" stroke-linecap="round"/>
<path d="M6 3.55L4.5 4.95" stroke="#E56B00" stroke-linecap="round"/>
<path d="M5.99999 3.55L7.5 4.95" stroke="#E56B00" stroke-linecap="round"/>
<path d="M2.5 1.45L4.5 4.95" stroke="#E56B00" stroke-linecap="round"/>
<path d="M1 1.45L2.50001 1.45" stroke="#E56B00" stroke-linecap="round"/>
</svg>
